<?xml version="1.0" encoding="UTF-8"?>
<!DOCTYPE svg PUBLIC "-//W3C//DTD SVG 1.1//EN" "http://www.w3.org/Graphics/SVG/1.1/DTD/svg11.dtd">
<svg xmlns="http://www.w3.org/2000/svg" version="1.1" width="512px" height="512px" style="shape-rendering:geometricPrecision; text-rendering:geometricPrecision; image-rendering:optimizeQuality; fill-rule:evenodd; clip-rule:evenodd" xmlns:xlink="http://www.w3.org/1999/xlink">
<g><path style="opacity:0.988" fill="#fc0039" d="M 236.5,-0.5 C 242.833,-0.5 249.167,-0.5 255.5,-0.5C 255.5,29.8333 255.5,60.1667 255.5,90.5C 215.626,92.0096 187.793,111.01 172,147.5C 159.075,188.651 168.908,223.151 201.5,251C 217.553,262.74 235.553,268.573 255.5,268.5C 255.5,349.5 255.5,430.5 255.5,511.5C 253.833,511.5 252.167,511.5 250.5,511.5C 247.614,510.121 245.114,508.121 243,505.5C 194,425.167 145,344.833 96,264.5C 74.1278,221.315 69.4611,176.315 82,129.5C 107.172,54.8248 158.672,11.4914 236.5,-0.5 Z"/></g>
<g><path style="opacity:1" fill="#e50027" d="M 255.5,-0.5 C 261.833,-0.5 268.167,-0.5 274.5,-0.5C 345.573,10.28 395.407,48.6133 424,114.5C 441.628,164.973 438.961,214.306 416,262.5C 366.667,343.833 317.333,425.167 268,506.5C 266.035,508.55 263.868,510.217 261.5,511.5C 259.5,511.5 257.5,511.5 255.5,511.5C 255.5,430.5 255.5,349.5 255.5,268.5C 294.161,267.427 321.661,249.427 338,214.5C 352.859,170.743 342.359,134.576 306.5,106C 291.158,95.4981 274.158,90.3314 255.5,90.5C 255.5,60.1667 255.5,29.8333 255.5,-0.5 Z"/></g>
</svg>
