<?xml version="1.0" encoding="UTF-8"?>
<!DOCTYPE svg PUBLIC "-//W3C//DTD SVG 1.1//EN" "http://www.w3.org/Graphics/SVG/1.1/DTD/svg11.dtd">
<svg xmlns="http://www.w3.org/2000/svg" version="1.1" width="100px" height="100px" style="shape-rendering:geometricPrecision; text-rendering:geometricPrecision; image-rendering:optimizeQuality; fill-rule:evenodd; clip-rule:evenodd" xmlns:xlink="http://www.w3.org/1999/xlink">
<g><path style="opacity:1" fill="#310F85" d="M 11.5,-0.5 C 36.8333,-0.5 62.1667,-0.5 87.5,-0.5C 87.5,32.8333 87.5,66.1667 87.5,99.5C 62.1667,99.5 36.8333,99.5 11.5,99.5C 11.5,66.1667 11.5,32.8333 11.5,-0.5 Z M 15.5,3.5 C 38.1667,3.5 60.8333,3.5 83.5,3.5C 83.5,34.1667 83.5,64.8333 83.5,95.5C 82.1667,95.5 80.8333,95.5 79.5,95.5C 79.5,66.1667 79.5,36.8333 79.5,7.5C 59.5,7.5 39.5,7.5 19.5,7.5C 19.5,36.8333 19.5,66.1667 19.5,95.5C 18.1667,95.5 16.8333,95.5 15.5,95.5C 15.5,64.8333 15.5,34.1667 15.5,3.5 Z M 61.5,48.5 C 66.1585,48.0146 67.4919,49.848 65.5,54C 60.7282,54.8104 59.3948,52.9771 61.5,48.5 Z"/></g>
</svg>
