<?xml version="1.0" encoding="UTF-8"?>
<!DOCTYPE svg PUBLIC "-//W3C//DTD SVG 1.1//EN" "http://www.w3.org/Graphics/SVG/1.1/DTD/svg11.dtd">
<svg xmlns="http://www.w3.org/2000/svg" version="1.1" width="100px" height="100px" style="shape-rendering:geometricPrecision; text-rendering:geometricPrecision; image-rendering:optimizeQuality; fill-rule:evenodd; clip-rule:evenodd" xmlns:xlink="http://www.w3.org/1999/xlink">
<g><path style="opacity:0.98" fill="#310F85" d="M 50.5,3.5 C 60.6591,2.15811 64.8257,6.49144 63,16.5C 60.1034,21.1549 55.9367,22.6549 50.5,21C 45.8451,18.1034 44.3451,13.9367 46,8.5C 47.025,6.31305 48.525,4.64638 50.5,3.5 Z"/></g>
<g><path style="opacity:0.965" fill="#310F85" d="M 41.5,25.5 C 45.8461,25.3343 50.1794,25.501 54.5,26C 57.4285,29.2572 58.2618,33.0906 57,37.5C 55.4213,43.6482 53.9213,49.8149 52.5,56C 53.7955,60.6263 55.9621,64.793 59,68.5C 60.8204,75.4357 62.3204,82.4357 63.5,89.5C 63.4871,94.999 60.8205,96.8323 55.5,95C 55,94.5 54.5,94 54,93.5C 52.2069,86.8685 50.5402,80.2019 49,73.5C 44.9648,69.7998 41.2981,65.7998 38,61.5C 37.7068,54.0344 38.3734,46.7011 40,39.5C 37.6667,40.8333 35.3333,42.1667 33,43.5C 31.2152,48.1899 29.0485,52.6899 26.5,57C 20.3333,58.8333 18.1667,56.6667 20,50.5C 22,45.8333 24,41.1667 26,36.5C 31.1456,32.6886 36.3123,29.0219 41.5,25.5 Z"/></g>
<g><path style="opacity:0.941" fill="#310F85" d="M 60.5,32.5 C 63.1484,34.5659 65.4818,37.0659 67.5,40C 71.2169,41.1798 74.8835,42.5131 78.5,44C 79.5914,46.0639 79.7581,48.2305 79,50.5C 73.0056,51.5541 67.1723,50.7207 61.5,48C 60.4841,46.3232 59.4841,44.6565 58.5,43C 59.7259,39.5981 60.3926,36.0981 60.5,32.5 Z"/></g>
<g><path style="opacity:0.953" fill="#310F85" d="M 35.5,64.5 C 39.2347,66.7246 42.568,69.558 45.5,73C 42.6235,81.4074 37.9569,88.7407 31.5,95C 25,96.5 22.5,94 24,87.5C 26.9504,82.8815 30.2838,78.5482 34,74.5C 34.8256,71.2072 35.3256,67.8738 35.5,64.5 Z"/></g>
</svg>
