<?xml version="1.0" encoding="UTF-8"?>
<!DOCTYPE svg PUBLIC "-//W3C//DTD SVG 1.1//EN" "http://www.w3.org/Graphics/SVG/1.1/DTD/svg11.dtd">
<svg xmlns="http://www.w3.org/2000/svg" version="1.1" width="512px" height="512px" style="shape-rendering:geometricPrecision; text-rendering:geometricPrecision; image-rendering:optimizeQuality; fill-rule:evenodd; clip-rule:evenodd" xmlns:xlink="http://www.w3.org/1999/xlink">
<g><path style="opacity:1" fill="#127f01" d="M 236.5,-0.5 C 249.167,-0.5 261.833,-0.5 274.5,-0.5C 345.573,10.28 395.407,48.6133 424,114.5C 441.628,164.973 438.961,214.306 416,262.5C 366.667,343.833 317.333,425.167 268,506.5C 266.035,508.55 263.868,510.217 261.5,511.5C 257.833,511.5 254.167,511.5 250.5,511.5C 248.131,510.31 246.131,508.643 244.5,506.5C 244.573,504.973 243.906,503.973 242.5,503.5C 240,500.506 238,497.173 236.5,493.5C 236.573,491.973 235.906,490.973 234.5,490.5C 233.662,490.158 233.328,489.492 233.5,488.5C 233.573,486.973 232.906,485.973 231.5,485.5C 229,482.506 227,479.173 225.5,475.5C 225.573,473.973 224.906,472.973 223.5,472.5C 222.662,472.158 222.328,471.492 222.5,470.5C 222.573,468.973 221.906,467.973 220.5,467.5C 218,464.506 216,461.173 214.5,457.5C 214.573,455.973 213.906,454.973 212.5,454.5C 211.662,454.158 211.328,453.492 211.5,452.5C 211.573,450.973 210.906,449.973 209.5,449.5C 207,446.506 205,443.173 203.5,439.5C 203.573,437.973 202.906,436.973 201.5,436.5C 200.662,436.158 200.328,435.492 200.5,434.5C 200.573,432.973 199.906,431.973 198.5,431.5C 196,428.506 194,425.173 192.5,421.5C 192.573,419.973 191.906,418.973 190.5,418.5C 189.662,418.158 189.328,417.492 189.5,416.5C 189.573,414.973 188.906,413.973 187.5,413.5C 185,410.506 183,407.173 181.5,403.5C 181.573,401.973 180.906,400.973 179.5,400.5C 178.662,400.158 178.328,399.492 178.5,398.5C 178.573,396.973 177.906,395.973 176.5,395.5C 174,392.506 172,389.173 170.5,385.5C 170.573,383.973 169.906,382.973 168.5,382.5C 167.662,382.158 167.328,381.492 167.5,380.5C 167.573,378.973 166.906,377.973 165.5,377.5C 163,374.506 161,371.173 159.5,367.5C 159.573,365.973 158.906,364.973 157.5,364.5C 156.662,364.158 156.328,363.492 156.5,362.5C 156.573,360.973 155.906,359.973 154.5,359.5C 152,356.506 150,353.173 148.5,349.5C 148.573,347.973 147.906,346.973 146.5,346.5C 145.662,346.158 145.328,345.492 145.5,344.5C 145.573,342.973 144.906,341.973 143.5,341.5C 141,338.506 139,335.173 137.5,331.5C 137.573,329.973 136.906,328.973 135.5,328.5C 134.662,328.158 134.328,327.492 134.5,326.5C 134.573,324.973 133.906,323.973 132.5,323.5C 130,320.506 128,317.173 126.5,313.5C 126.573,311.973 125.906,310.973 124.5,310.5C 123.662,310.158 123.328,309.492 123.5,308.5C 123.573,306.973 122.906,305.973 121.5,305.5C 119,302.506 117,299.173 115.5,295.5C 115.573,293.973 114.906,292.973 113.5,292.5C 112.662,292.158 112.328,291.492 112.5,290.5C 112.573,288.973 111.906,287.973 110.5,287.5C 108,284.506 106,281.173 104.5,277.5C 104.573,275.973 103.906,274.973 102.5,274.5C 100.44,271.76 98.7738,268.76 97.5,265.5C 96.6743,262.515 95.341,259.849 93.5,257.5C 78.1982,227.035 72.3649,194.702 76,160.5C 78.0701,138.8 84.2368,118.466 94.5,99.5C 95.9313,98.2196 96.5979,96.5529 96.5,94.5C 97.9063,94.0269 98.573,93.0269 98.5,91.5C 100.418,86.6566 103.084,82.3233 106.5,78.5C 107.906,78.0269 108.573,77.0269 108.5,75.5C 108.5,74.8333 108.833,74.5 109.5,74.5C 110.906,74.0269 111.573,73.0269 111.5,71.5C 111.5,70.8333 111.833,70.5 112.5,70.5C 113.906,70.0269 114.573,69.0269 114.5,67.5C 114.5,66.8333 114.833,66.5 115.5,66.5C 117.262,65.7377 118.262,64.4044 118.5,62.5C 119.833,60.5 121.5,58.8333 123.5,57.5C 125.587,56.4154 126.92,54.7488 127.5,52.5C 127.5,51.8333 127.833,51.5 128.5,51.5C 130.749,50.9202 132.415,49.5869 133.5,47.5C 134.833,45.5 136.5,43.8333 138.5,42.5C 140.404,42.2624 141.738,41.2624 142.5,39.5C 142.5,38.8333 142.833,38.5 143.5,38.5C 145.027,38.573 146.027,37.9063 146.5,36.5C 146.5,35.8333 146.833,35.5 147.5,35.5C 149.027,35.573 150.027,34.9063 150.5,33.5C 150.5,32.8333 150.833,32.5 151.5,32.5C 153.027,32.573 154.027,31.9063 154.5,30.5C 158.323,27.0843 162.657,24.4176 167.5,22.5C 169.027,22.573 170.027,21.9063 170.5,20.5C 172.553,20.5979 174.22,19.9313 175.5,18.5C 184.837,13.0058 194.837,8.83917 205.5,6C 215.879,3.38705 226.212,1.22038 236.5,-0.5 Z M 207.5,255.5 C 207.027,254.094 206.027,253.427 204.5,253.5C 203.055,251.937 201.389,250.604 199.5,249.5C 199.027,248.094 198.027,247.427 196.5,247.5C 194.167,244.5 191.5,241.833 188.5,239.5C 188.262,237.596 187.262,236.262 185.5,235.5C 184.396,233.611 183.063,231.945 181.5,230.5C 181.573,228.973 180.906,227.973 179.5,227.5C 179.672,226.508 179.338,225.842 178.5,225.5C 178.573,223.973 177.906,222.973 176.5,222.5C 162.6,192.451 163.267,162.784 178.5,133.5C 179.906,133.027 180.573,132.027 180.5,130.5C 182.853,128.14 184.853,125.473 186.5,122.5C 188.587,121.415 189.92,119.749 190.5,117.5C 191.833,116.833 192.833,115.833 193.5,114.5C 195.749,113.92 197.415,112.587 198.5,110.5C 201.473,108.853 204.14,106.853 206.5,104.5C 208.027,104.573 209.027,103.906 209.5,102.5C 248.337,82.8909 284.337,87.0575 317.5,115C 347.553,147.834 352.719,184.334 333,224.5C 310.206,259.472 278.039,273.639 236.5,267C 226.191,264.623 216.525,260.789 207.5,255.5 Z"/></g>
<g><path style="opacity:0.576" fill="#fffb56" d="M 175.5,18.5 C 174.22,19.9313 172.553,20.5979 170.5,20.5C 171.78,19.0687 173.447,18.4021 175.5,18.5 Z"/></g>
<g><path style="opacity:0.492" fill="#fe0043" d="M 170.5,20.5 C 170.027,21.9063 169.027,22.573 167.5,22.5C 167.973,21.0937 168.973,20.427 170.5,20.5 Z"/></g>
<g><path style="opacity:0.447" fill="#fe003b" d="M 154.5,30.5 C 154.027,31.9063 153.027,32.573 151.5,32.5C 151.973,31.0937 152.973,30.427 154.5,30.5 Z"/></g>
<g><path style="opacity:0.784" fill="#fe0041" d="M 150.5,33.5 C 150.027,34.9063 149.027,35.573 147.5,35.5C 147.973,34.0937 148.973,33.427 150.5,33.5 Z"/></g>
<g><path style="opacity:0.461" fill="#fe0040" d="M 146.5,36.5 C 146.027,37.9063 145.027,38.573 143.5,38.5C 143.973,37.0937 144.973,36.427 146.5,36.5 Z"/></g>
<g><path style="opacity:0.476" fill="#fe003f" d="M 142.5,39.5 C 141.738,41.2624 140.404,42.2624 138.5,42.5C 139.262,40.7376 140.596,39.7376 142.5,39.5 Z"/></g>
<g><path style="opacity:0.792" fill="#fffe46" d="M 133.5,47.5 C 132.415,49.5869 130.749,50.9202 128.5,51.5C 129.585,49.4131 131.251,48.0798 133.5,47.5 Z"/></g>
<g><path style="opacity:0.647" fill="#fff95b" d="M 127.5,52.5 C 126.92,54.7488 125.587,56.4154 123.5,57.5C 124.08,55.2512 125.413,53.5846 127.5,52.5 Z"/></g>
<g><path style="opacity:0.476" fill="#fe003f" d="M 118.5,62.5 C 118.262,64.4044 117.262,65.7377 115.5,66.5C 115.738,64.5956 116.738,63.2623 118.5,62.5 Z"/></g>
<g><path style="opacity:0.461" fill="#fe0040" d="M 114.5,67.5 C 114.573,69.0269 113.906,70.0269 112.5,70.5C 112.427,68.9731 113.094,67.9731 114.5,67.5 Z"/></g>
<g><path style="opacity:0.784" fill="#fe0045" d="M 111.5,71.5 C 111.573,73.0269 110.906,74.0269 109.5,74.5C 109.427,72.9731 110.094,71.9731 111.5,71.5 Z"/></g>
<g><path style="opacity:0.541" fill="#fd003c" d="M 108.5,75.5 C 108.573,77.0269 107.906,78.0269 106.5,78.5C 106.427,76.9731 107.094,75.9731 108.5,75.5 Z"/></g>
<g><path style="opacity:0.365" fill="#ffff4b" d="M 98.5,91.5 C 98.573,93.0269 97.9063,94.0269 96.5,94.5C 96.427,92.9731 97.0937,91.9731 98.5,91.5 Z"/></g>
<g><path style="opacity:0.576" fill="#fff862" d="M 96.5,94.5 C 96.5979,96.5529 95.9313,98.2196 94.5,99.5C 94.4021,97.4471 95.0687,95.7804 96.5,94.5 Z"/></g>
<g><path style="opacity:0.004" fill="#ffee90" d="M 209.5,102.5 C 209.027,103.906 208.027,104.573 206.5,104.5C 206.973,103.094 207.973,102.427 209.5,102.5 Z"/></g>
<g><path style="opacity:0.047" fill="#fff95b" d="M 198.5,110.5 C 197.415,112.587 195.749,113.92 193.5,114.5C 194.585,112.413 196.251,111.08 198.5,110.5 Z"/></g>
<g><path style="opacity:0.047" fill="#fffc51" d="M 190.5,117.5 C 189.92,119.749 188.587,121.415 186.5,122.5C 187.08,120.251 188.413,118.585 190.5,117.5 Z"/></g>
<g><path style="opacity:0.004" fill="#ffee90" d="M 180.5,130.5 C 180.573,132.027 179.906,133.027 178.5,133.5C 178.427,131.973 179.094,130.973 180.5,130.5 Z"/></g>
<g><path style="opacity:0.416" fill="#ffff4b" d="M 176.5,222.5 C 177.906,222.973 178.573,223.973 178.5,225.5C 177.094,225.027 176.427,224.027 176.5,222.5 Z"/></g>
<g><path style="opacity:0.524" fill="#fe0041" d="M 179.5,227.5 C 180.906,227.973 181.573,228.973 181.5,230.5C 180.094,230.027 179.427,229.027 179.5,227.5 Z"/></g>
<g><path style="opacity:0.718" fill="#fff859" d="M 185.5,235.5 C 187.262,236.262 188.262,237.596 188.5,239.5C 186.738,238.738 185.738,237.404 185.5,235.5 Z"/></g>
<g><path style="opacity:0.384" fill="#fe0041" d="M 196.5,247.5 C 198.027,247.427 199.027,248.094 199.5,249.5C 197.973,249.573 196.973,248.906 196.5,247.5 Z"/></g>
<g><path style="opacity:0.208" fill="#ffff4c" d="M 204.5,253.5 C 206.027,253.427 207.027,254.094 207.5,255.5C 205.973,255.573 204.973,254.906 204.5,253.5 Z"/></g>
<g><path style="opacity:0.573" fill="#fff85e" d="M 93.5,257.5 C 95.341,259.849 96.6743,262.515 97.5,265.5C 95.127,263.421 93.7936,260.754 93.5,257.5 Z"/></g>
<g><path style="opacity:0.476" fill="#fff566" d="M 102.5,274.5 C 103.906,274.973 104.573,275.973 104.5,277.5C 103.094,277.027 102.427,276.027 102.5,274.5 Z"/></g>
<g><path style="opacity:0.524" fill="#fe003d" d="M 110.5,287.5 C 111.906,287.973 112.573,288.973 112.5,290.5C 111.094,290.027 110.427,289.027 110.5,287.5 Z"/></g>
<g><path style="opacity:0.476" fill="#fff566" d="M 113.5,292.5 C 114.906,292.973 115.573,293.973 115.5,295.5C 114.094,295.027 113.427,294.027 113.5,292.5 Z"/></g>
<g><path style="opacity:0.524" fill="#fe0041" d="M 121.5,305.5 C 122.906,305.973 123.573,306.973 123.5,308.5C 122.094,308.027 121.427,307.027 121.5,305.5 Z"/></g>
<g><path style="opacity:0.476" fill="#fff566" d="M 124.5,310.5 C 125.906,310.973 126.573,311.973 126.5,313.5C 125.094,313.027 124.427,312.027 124.5,310.5 Z"/></g>
<g><path style="opacity:0.52" fill="#fe0040" d="M 132.5,323.5 C 133.906,323.973 134.573,324.973 134.5,326.5C 133.094,326.027 132.427,325.027 132.5,323.5 Z"/></g>
<g><path style="opacity:0.476" fill="#fff566" d="M 135.5,328.5 C 136.906,328.973 137.573,329.973 137.5,331.5C 136.094,331.027 135.427,330.027 135.5,328.5 Z"/></g>
<g><path style="opacity:0.52" fill="#fe0040" d="M 143.5,341.5 C 144.906,341.973 145.573,342.973 145.5,344.5C 144.094,344.027 143.427,343.027 143.5,341.5 Z"/></g>
<g><path style="opacity:0.476" fill="#fff566" d="M 146.5,346.5 C 147.906,346.973 148.573,347.973 148.5,349.5C 147.094,349.027 146.427,348.027 146.5,346.5 Z"/></g>
<g><path style="opacity:0.52" fill="#fe0040" d="M 154.5,359.5 C 155.906,359.973 156.573,360.973 156.5,362.5C 155.094,362.027 154.427,361.027 154.5,359.5 Z"/></g>
<g><path style="opacity:0.475" fill="#fff566" d="M 157.5,364.5 C 158.906,364.973 159.573,365.973 159.5,367.5C 158.094,367.027 157.427,366.027 157.5,364.5 Z"/></g>
<g><path style="opacity:0.52" fill="#fe0040" d="M 165.5,377.5 C 166.906,377.973 167.573,378.973 167.5,380.5C 166.094,380.027 165.427,379.027 165.5,377.5 Z"/></g>
<g><path style="opacity:0.473" fill="#fff566" d="M 168.5,382.5 C 169.906,382.973 170.573,383.973 170.5,385.5C 169.094,385.027 168.427,384.027 168.5,382.5 Z"/></g>
<g><path style="opacity:0.52" fill="#fe0040" d="M 176.5,395.5 C 177.906,395.973 178.573,396.973 178.5,398.5C 177.094,398.027 176.427,397.027 176.5,395.5 Z"/></g>
<g><path style="opacity:0.473" fill="#fff566" d="M 179.5,400.5 C 180.906,400.973 181.573,401.973 181.5,403.5C 180.094,403.027 179.427,402.027 179.5,400.5 Z"/></g>
<g><path style="opacity:0.52" fill="#fe0040" d="M 187.5,413.5 C 188.906,413.973 189.573,414.973 189.5,416.5C 188.094,416.027 187.427,415.027 187.5,413.5 Z"/></g>
<g><path style="opacity:0.473" fill="#fff566" d="M 190.5,418.5 C 191.906,418.973 192.573,419.973 192.5,421.5C 191.094,421.027 190.427,420.027 190.5,418.5 Z"/></g>
<g><path style="opacity:0.52" fill="#fe0040" d="M 198.5,431.5 C 199.906,431.973 200.573,432.973 200.5,434.5C 199.094,434.027 198.427,433.027 198.5,431.5 Z"/></g>
<g><path style="opacity:0.473" fill="#fff566" d="M 201.5,436.5 C 202.906,436.973 203.573,437.973 203.5,439.5C 202.094,439.027 201.427,438.027 201.5,436.5 Z"/></g>
<g><path style="opacity:0.516" fill="#fe0040" d="M 209.5,449.5 C 210.906,449.973 211.573,450.973 211.5,452.5C 210.094,452.027 209.427,451.027 209.5,449.5 Z"/></g>
<g><path style="opacity:0.473" fill="#fff566" d="M 212.5,454.5 C 213.906,454.973 214.573,455.973 214.5,457.5C 213.094,457.027 212.427,456.027 212.5,454.5 Z"/></g>
<g><path style="opacity:0.516" fill="#fe0041" d="M 220.5,467.5 C 221.906,467.973 222.573,468.973 222.5,470.5C 221.094,470.027 220.427,469.027 220.5,467.5 Z"/></g>
<g><path style="opacity:0.471" fill="#fff566" d="M 223.5,472.5 C 224.906,472.973 225.573,473.973 225.5,475.5C 224.094,475.027 223.427,474.027 223.5,472.5 Z"/></g>
<g><path style="opacity:0.516" fill="#fe0041" d="M 231.5,485.5 C 232.906,485.973 233.573,486.973 233.5,488.5C 232.094,488.027 231.427,487.027 231.5,485.5 Z"/></g>
<g><path style="opacity:0.471" fill="#fff566" d="M 234.5,490.5 C 235.906,490.973 236.573,491.973 236.5,493.5C 235.094,493.027 234.427,492.027 234.5,490.5 Z"/></g>
<g><path style="opacity:0.086" fill="#ffff4f" d="M 242.5,503.5 C 243.906,503.973 244.573,504.973 244.5,506.5C 243.094,506.027 242.427,505.027 242.5,503.5 Z"/></g>
</svg>
